<mxfile host="Electron" agent="Mozilla/5.0 (Macintosh; Intel Mac OS X 10_15_7) AppleWebKit/537.36 (KHTML, like Gecko) draw.io/27.0.2 Chrome/134.0.6998.205 Electron/35.3.0 Safari/537.36" version="27.0.2">
  <diagram name="Page-1" id="D2mkemK1pfjjcZlUskxY">
    <mxGraphModel dx="2946" dy="2815" grid="1" gridSize="10" guides="0" tooltips="1" connect="1" arrows="1" fold="1" page="1" pageScale="1" pageWidth="1100" pageHeight="850" math="0" shadow="0">
      <root>
        <mxCell id="0" />
        <mxCell id="1" parent="0" />
        <mxCell id="FTVYmsemLhQfNNow4BaC-95" style="edgeStyle=orthogonalEdgeStyle;rounded=0;orthogonalLoop=1;jettySize=auto;html=1;exitX=0.5;exitY=1;exitDx=0;exitDy=0;fontFamily=Helvetica;fontSize=15;fontColor=#595959;strokeColor=#595959;strokeWidth=2;" parent="1" edge="1">
          <mxGeometry relative="1" as="geometry">
            <mxPoint x="549.0144736842103" y="-1270.5" as="sourcePoint" />
            <mxPoint x="549.0144736842103" y="-1270.5" as="targetPoint" />
          </mxGeometry>
        </mxCell>
        <mxCell id="FTVYmsemLhQfNNow4BaC-108" style="edgeStyle=none;rounded=0;orthogonalLoop=1;jettySize=auto;html=1;entryX=0;entryY=0.5;entryDx=0;entryDy=0;dashed=1;startArrow=classic;startFill=1;endArrow=classic;endFill=1;strokeColor=#C0399F;strokeWidth=1;fontSize=16;" parent="1" edge="1">
          <mxGeometry relative="1" as="geometry">
            <mxPoint x="30" y="-1550" as="sourcePoint" />
            <mxPoint x="30" y="-1550" as="targetPoint" />
          </mxGeometry>
        </mxCell>
        <mxCell id="6BNfL55N-zPbYAa_lblD-5" value="" style="rounded=1;whiteSpace=wrap;html=1;strokeColor=#0070F2;fillColor=#EBF8FF;arcSize=29;absoluteArcSize=1;strokeWidth=1.5;" parent="1" vertex="1">
          <mxGeometry x="150" y="-1660" width="510" height="520" as="geometry" />
        </mxCell>
        <mxCell id="6BNfL55N-zPbYAa_lblD-6" value="BTP" style="image;image=img/lib/sap/SAP_Logo.svg;editableCssRules=.*;part=1;verticalLabelPosition=middle;labelBackgroundColor=none;verticalAlign=middle;imageAspect=0;labelPosition=right;align=left;fontSize=16;fontStyle=1;spacingLeft=0;fontColor=#002A86;spacing=0;" parent="6BNfL55N-zPbYAa_lblD-5" vertex="1">
          <mxGeometry width="37" height="19" relative="1" as="geometry">
            <mxPoint x="20" y="20" as="offset" />
          </mxGeometry>
        </mxCell>
        <mxCell id="6BNfL55N-zPbYAa_lblD-1" value="" style="shape=mxgraph.sap.icon;labelPosition=center;verticalLabelPosition=bottom;align=center;verticalAlign=top;strokeWidth=1;strokeColor=#D5DADD;fillColor=#EDEFF0;gradientColor=#FCFCFC;gradientDirection=west;aspect=fixed;SAPIcon=SAP_Destination_service;fontStyle=1" parent="6BNfL55N-zPbYAa_lblD-5" vertex="1">
          <mxGeometry x="20" y="100" width="50" height="50" as="geometry" />
        </mxCell>
        <mxCell id="6BNfL55N-zPbYAa_lblD-52" value="" style="group" parent="6BNfL55N-zPbYAa_lblD-5" vertex="1" connectable="0">
          <mxGeometry x="110" y="180" width="271.06" height="191.76" as="geometry" />
        </mxCell>
        <mxCell id="6BNfL55N-zPbYAa_lblD-7" value="" style="strokeColor=#0070F2;shadow=0;strokeWidth=2;rounded=1;absoluteArcSize=1;arcSize=20;" parent="6BNfL55N-zPbYAa_lblD-52" vertex="1">
          <mxGeometry width="270" height="90" as="geometry" />
        </mxCell>
        <mxCell id="6BNfL55N-zPbYAa_lblD-43" value="" style="shape=mxgraph.sap.icon;labelPosition=center;verticalLabelPosition=bottom;align=center;verticalAlign=top;strokeWidth=1;strokeColor=#D5DADD;fillColor=#EDEFF0;gradientColor=#FCFCFC;gradientDirection=west;aspect=fixed;SAPIcon=SAP_BTP,_ABAP_environment" parent="6BNfL55N-zPbYAa_lblD-52" vertex="1">
          <mxGeometry x="27.106" y="6.55443419162177" width="28.293726140078647" height="28.293726140078647" as="geometry" />
        </mxCell>
        <mxCell id="6BNfL55N-zPbYAa_lblD-44" value="&lt;b&gt;Application A&lt;/b&gt;" style="rounded=1;whiteSpace=wrap;html=1;strokeColor=#0070F2;fillColor=#EBF8FF;arcSize=24;absoluteArcSize=1;imageWidth=64;imageHeight=64;strokeWidth=1.5;" parent="6BNfL55N-zPbYAa_lblD-52" vertex="1">
          <mxGeometry x="63.25080846153846" y="45.881039341352384" width="153.59719153846157" height="25.489466300751328" as="geometry" />
        </mxCell>
        <mxCell id="6BNfL55N-zPbYAa_lblD-50" value="&lt;b&gt;SAP BTP ABAP Runtime&lt;/b&gt;" style="text;html=1;align=center;verticalAlign=middle;whiteSpace=wrap;rounded=0;" parent="6BNfL55N-zPbYAa_lblD-52" vertex="1">
          <mxGeometry x="54.212" y="13.10886838324354" width="171.67133333333334" height="19.66330257486531" as="geometry" />
        </mxCell>
        <mxCell id="6BNfL55N-zPbYAa_lblD-64" value="" style="group" parent="6BNfL55N-zPbYAa_lblD-52" vertex="1" connectable="0">
          <mxGeometry y="99.99792131729524" width="271.06" height="91.76207868270477" as="geometry" />
        </mxCell>
        <mxCell id="6BNfL55N-zPbYAa_lblD-65" value="" style="strokeColor=#0070F2;shadow=0;strokeWidth=2;rounded=1;absoluteArcSize=1;arcSize=20;" parent="6BNfL55N-zPbYAa_lblD-64" vertex="1">
          <mxGeometry width="271.06" height="91.76207868270477" as="geometry" />
        </mxCell>
        <mxCell id="6BNfL55N-zPbYAa_lblD-67" value="&lt;b&gt;Application B&lt;/b&gt;" style="rounded=1;whiteSpace=wrap;html=1;strokeColor=#0070F2;fillColor=#EBF8FF;arcSize=24;absoluteArcSize=1;imageWidth=64;imageHeight=64;strokeWidth=1.5;" parent="6BNfL55N-zPbYAa_lblD-64" vertex="1">
          <mxGeometry x="63.247333333333344" y="45.881039341352384" width="153.60066666666668" height="26.21773676648708" as="geometry" />
        </mxCell>
        <mxCell id="6BNfL55N-zPbYAa_lblD-68" value="&lt;b&gt;SAP BTP Cloud Foundry&amp;nbsp;&lt;/b&gt;" style="text;html=1;align=center;verticalAlign=middle;whiteSpace=wrap;rounded=0;" parent="6BNfL55N-zPbYAa_lblD-64" vertex="1">
          <mxGeometry x="62.5523076923077" y="13.111781465106482" width="173.75988538461536" height="19.66767219765972" as="geometry" />
        </mxCell>
        <mxCell id="6BNfL55N-zPbYAa_lblD-49" value="" style="shape=mxgraph.sap.icon;labelPosition=center;verticalLabelPosition=bottom;align=center;verticalAlign=top;strokeWidth=1;strokeColor=#D5DADD;fillColor=#EDEFF0;gradientColor=#FCFCFC;gradientDirection=west;aspect=fixed;SAPIcon=SAP_BTP,_Cloud_Foundry_runtime" parent="6BNfL55N-zPbYAa_lblD-64" vertex="1">
          <mxGeometry x="31.27615384615385" y="10.19578652030053" width="30.587359560901593" height="30.587359560901593" as="geometry" />
        </mxCell>
        <mxCell id="6BNfL55N-zPbYAa_lblD-69" value="" style="group" parent="6BNfL55N-zPbYAa_lblD-5" vertex="1" connectable="0">
          <mxGeometry x="110" y="380" width="271.06" height="91.76" as="geometry" />
        </mxCell>
        <mxCell id="6BNfL55N-zPbYAa_lblD-70" value="" style="strokeColor=#0070F2;shadow=0;strokeWidth=2;rounded=1;absoluteArcSize=1;arcSize=20;" parent="6BNfL55N-zPbYAa_lblD-69" vertex="1">
          <mxGeometry width="271.06" height="91.76" as="geometry" />
        </mxCell>
        <mxCell id="6BNfL55N-zPbYAa_lblD-72" value="&lt;b&gt;Application C&lt;/b&gt;" style="rounded=1;whiteSpace=wrap;html=1;strokeColor=#0070F2;fillColor=#EBF8FF;arcSize=24;absoluteArcSize=1;imageWidth=64;imageHeight=64;strokeWidth=1.5;" parent="6BNfL55N-zPbYAa_lblD-69" vertex="1">
          <mxGeometry x="63.247333333333344" y="45.88" width="153.60066666666668" height="26.217142857142864" as="geometry" />
        </mxCell>
        <mxCell id="6BNfL55N-zPbYAa_lblD-73" value="&lt;b&gt;SAP BTP Kyma Runtime&lt;/b&gt;" style="text;html=1;align=center;verticalAlign=middle;whiteSpace=wrap;rounded=0;" parent="6BNfL55N-zPbYAa_lblD-69" vertex="1">
          <mxGeometry x="62.5523076923077" y="13.108571428571432" width="171.67133333333334" height="19.662857142857145" as="geometry" />
        </mxCell>
        <mxCell id="6BNfL55N-zPbYAa_lblD-74" value="" style="shape=mxgraph.sap.icon;labelPosition=center;verticalLabelPosition=bottom;align=center;verticalAlign=top;strokeWidth=1;strokeColor=#D5DADD;fillColor=#EDEFF0;gradientColor=#FCFCFC;gradientDirection=west;aspect=fixed;SAPIcon=SAP_BTP,_Kyma_runtime" parent="6BNfL55N-zPbYAa_lblD-69" vertex="1">
          <mxGeometry x="31.27615384615385" y="10.195555555555558" width="30.586666666666673" height="30.586666666666673" as="geometry" />
        </mxCell>
        <mxCell id="6BNfL55N-zPbYAa_lblD-132" value="" style="group" parent="6BNfL55N-zPbYAa_lblD-5" vertex="1" connectable="0">
          <mxGeometry x="200" y="30" width="130" height="50" as="geometry" />
        </mxCell>
        <mxCell id="6BNfL55N-zPbYAa_lblD-113" value="" style="strokeColor=#0070F2;shadow=0;strokeWidth=2;rounded=1;absoluteArcSize=1;arcSize=20;fontStyle=1" parent="6BNfL55N-zPbYAa_lblD-132" vertex="1">
          <mxGeometry width="130" height="50" as="geometry" />
        </mxCell>
        <mxCell id="6BNfL55N-zPbYAa_lblD-131" value="" style="group" parent="6BNfL55N-zPbYAa_lblD-132" vertex="1" connectable="0">
          <mxGeometry x="10" y="10" width="110" height="30" as="geometry" />
        </mxCell>
        <mxCell id="6BNfL55N-zPbYAa_lblD-117" value="" style="sketch=0;pointerEvents=1;shadow=0;dashed=0;html=1;strokeColor=none;fillColor=#505050;labelPosition=center;verticalLabelPosition=bottom;verticalAlign=top;outlineConnect=0;align=center;shape=mxgraph.office.security.certificate;" parent="6BNfL55N-zPbYAa_lblD-131" vertex="1">
          <mxGeometry width="40" height="30" as="geometry" />
        </mxCell>
        <mxCell id="6BNfL55N-zPbYAa_lblD-118" value="&lt;b&gt;Private CA&lt;/b&gt;" style="text;html=1;align=center;verticalAlign=middle;whiteSpace=wrap;rounded=0;" parent="6BNfL55N-zPbYAa_lblD-131" vertex="1">
          <mxGeometry x="50" width="60" height="30" as="geometry" />
        </mxCell>
        <mxCell id="6BNfL55N-zPbYAa_lblD-158" value="&lt;p style=&quot;line-height: 114%;&quot;&gt;&lt;font color=&quot;#cc00dc&quot; size=&quot;1&quot;&gt;&lt;b style=&quot;&quot;&gt;Trust&lt;/b&gt;&lt;/font&gt;&lt;/p&gt;" style="rounded=1;whiteSpace=wrap;html=1;arcSize=50;strokeColor=#CC00DC;fillColor=#fff0fa;fontColor=#266f3a;strokeWidth=1.5;" parent="6BNfL55N-zPbYAa_lblD-5" vertex="1">
          <mxGeometry x="440" y="50" width="41.99" height="16" as="geometry" />
        </mxCell>
        <mxCell id="6BNfL55N-zPbYAa_lblD-159" value="" style="endArrow=none;html=1;rounded=0;entryX=0;entryY=0.5;entryDx=0;entryDy=0;strokeColor=#cc00dc;strokeWidth=1.5;flowAnimation=1;shadow=1;" parent="6BNfL55N-zPbYAa_lblD-5" target="6BNfL55N-zPbYAa_lblD-158" edge="1">
          <mxGeometry width="50" height="50" relative="1" as="geometry">
            <mxPoint x="330" y="58" as="sourcePoint" />
            <mxPoint x="440" y="48" as="targetPoint" />
          </mxGeometry>
        </mxCell>
        <mxCell id="6BNfL55N-zPbYAa_lblD-163" value="Destination Service" style="text;html=1;align=center;verticalAlign=middle;whiteSpace=wrap;rounded=0;fontStyle=1" parent="6BNfL55N-zPbYAa_lblD-5" vertex="1">
          <mxGeometry x="20" y="70" width="60" height="30" as="geometry" />
        </mxCell>
        <mxCell id="6BNfL55N-zPbYAa_lblD-267" value="" style="endArrow=none;html=1;strokeColor=#188918;bendable=1;rounded=0;endFill=0;endSize=4;edgeStyle=entityRelationEdgeStyle;startArrow=none;startFill=0;startSize=4;jumpStyle=none;jumpSize=0;targetPerimeterSpacing=15;dashed=1;strokeWidth=1.5;entryX=0;entryY=0.5;entryDx=0;entryDy=0;flowAnimation=1;" parent="6BNfL55N-zPbYAa_lblD-5" target="6BNfL55N-zPbYAa_lblD-113" edge="1">
          <mxGeometry width="50" height="50" relative="1" as="geometry">
            <mxPoint x="70" y="110" as="sourcePoint" />
            <mxPoint x="190" y="110" as="targetPoint" />
            <Array as="points">
              <mxPoint x="80" y="130" />
            </Array>
          </mxGeometry>
        </mxCell>
        <mxCell id="6BNfL55N-zPbYAa_lblD-275" value="&lt;p style=&quot;line-height: 114%;&quot;&gt;&lt;font size=&quot;1&quot; color=&quot;#188918&quot;&gt;&lt;b&gt;Authenticate&lt;/b&gt;&lt;/font&gt;&lt;/p&gt;" style="rounded=1;whiteSpace=wrap;html=1;arcSize=50;strokeColor=#188918;fillColor=#f5fae5;fontColor=#266f3a;strokeWidth=1.5;" parent="6BNfL55N-zPbYAa_lblD-5" vertex="1">
          <mxGeometry x="420" y="320" width="70" height="16" as="geometry" />
        </mxCell>
        <mxCell id="6BNfL55N-zPbYAa_lblD-276" value="" style="endArrow=none;html=1;rounded=0;entryX=0;entryY=0.5;entryDx=0;entryDy=0;strokeColor=#178b1b;strokeWidth=1.5;flowAnimation=1;shadow=1;" parent="6BNfL55N-zPbYAa_lblD-5" target="6BNfL55N-zPbYAa_lblD-275" edge="1">
          <mxGeometry width="50" height="50" relative="1" as="geometry">
            <mxPoint x="380" y="328" as="sourcePoint" />
            <mxPoint x="440" y="318" as="targetPoint" />
          </mxGeometry>
        </mxCell>
        <mxCell id="6BNfL55N-zPbYAa_lblD-279" value="" style="endArrow=none;html=1;rounded=0;entryX=0;entryY=0.5;entryDx=0;entryDy=0;strokeColor=#178b1b;strokeWidth=1.5;edgeStyle=orthogonalEdgeStyle;flowAnimation=1;shadow=1;" parent="6BNfL55N-zPbYAa_lblD-5" target="6BNfL55N-zPbYAa_lblD-275" edge="1">
          <mxGeometry width="50" height="50" relative="1" as="geometry">
            <mxPoint x="380" y="228" as="sourcePoint" />
            <mxPoint x="420" y="228" as="targetPoint" />
            <Array as="points">
              <mxPoint x="380" y="229" />
              <mxPoint x="410" y="229" />
              <mxPoint x="410" y="328" />
            </Array>
          </mxGeometry>
        </mxCell>
        <mxCell id="PtYt7lvKfpzourR0MFkW-32" style="edgeStyle=orthogonalEdgeStyle;rounded=0;orthogonalLoop=1;jettySize=auto;html=1;flowAnimation=1;shadow=1;" parent="6BNfL55N-zPbYAa_lblD-5" source="PtYt7lvKfpzourR0MFkW-22" target="6BNfL55N-zPbYAa_lblD-67" edge="1">
          <mxGeometry relative="1" as="geometry" />
        </mxCell>
        <mxCell id="PtYt7lvKfpzourR0MFkW-33" style="edgeStyle=orthogonalEdgeStyle;rounded=0;orthogonalLoop=1;jettySize=auto;html=1;entryX=0;entryY=0.5;entryDx=0;entryDy=0;flowAnimation=1;shadow=1;" parent="6BNfL55N-zPbYAa_lblD-5" source="PtYt7lvKfpzourR0MFkW-22" target="6BNfL55N-zPbYAa_lblD-44" edge="1">
          <mxGeometry relative="1" as="geometry">
            <Array as="points">
              <mxPoint x="60" y="340" />
              <mxPoint x="60" y="239" />
            </Array>
          </mxGeometry>
        </mxCell>
        <mxCell id="PtYt7lvKfpzourR0MFkW-34" style="edgeStyle=orthogonalEdgeStyle;rounded=0;orthogonalLoop=1;jettySize=auto;html=1;entryX=0;entryY=0.5;entryDx=0;entryDy=0;flowAnimation=1;shadow=1;" parent="6BNfL55N-zPbYAa_lblD-5" source="PtYt7lvKfpzourR0MFkW-22" target="6BNfL55N-zPbYAa_lblD-72" edge="1">
          <mxGeometry relative="1" as="geometry">
            <Array as="points">
              <mxPoint x="60" y="340" />
              <mxPoint x="60" y="439" />
            </Array>
          </mxGeometry>
        </mxCell>
        <mxCell id="PtYt7lvKfpzourR0MFkW-22" value="" style="shape=waypoint;sketch=0;fillStyle=solid;size=6;pointerEvents=1;points=[];fillColor=none;resizable=0;rotatable=0;perimeter=centerPerimeter;snapToPoint=1;" parent="6BNfL55N-zPbYAa_lblD-5" vertex="1">
          <mxGeometry x="30" y="330" width="20" height="20" as="geometry" />
        </mxCell>
        <mxCell id="PtYt7lvKfpzourR0MFkW-25" style="edgeStyle=orthogonalEdgeStyle;rounded=0;orthogonalLoop=1;jettySize=auto;html=1;entryX=0.85;entryY=0.9;entryDx=0;entryDy=0;entryPerimeter=0;endArrow=none;startFill=0;flowAnimation=1;shadow=1;" parent="6BNfL55N-zPbYAa_lblD-5" edge="1">
          <mxGeometry relative="1" as="geometry">
            <mxPoint x="40" y="150" as="sourcePoint" />
            <mxPoint x="40" y="330" as="targetPoint" />
            <Array as="points">
              <mxPoint x="40" y="190" />
              <mxPoint x="40" y="190" />
            </Array>
          </mxGeometry>
        </mxCell>
        <mxCell id="PtYt7lvKfpzourR0MFkW-29" value="&lt;font size=&quot;1&quot; color=&quot;#475f75&quot;&gt;&lt;b style=&quot;&quot;&gt;get x509 pair&lt;/b&gt;&lt;/font&gt;" style="rounded=1;whiteSpace=wrap;html=1;arcSize=50;strokeColor=#475f75;fillColor=default;strokeWidth=1.5;perimeterSpacing=0;" parent="6BNfL55N-zPbYAa_lblD-5" vertex="1">
          <mxGeometry x="10" y="170" width="80" height="20" as="geometry" />
        </mxCell>
        <mxCell id="6BNfL55N-zPbYAa_lblD-9" value="&lt;b&gt;AWS Cloud&lt;/b&gt;" style="points=[[0,0],[0.25,0],[0.5,0],[0.75,0],[1,0],[1,0.25],[1,0.5],[1,0.75],[1,1],[0.75,1],[0.5,1],[0.25,1],[0,1],[0,0.75],[0,0.5],[0,0.25]];outlineConnect=0;html=1;whiteSpace=wrap;fontSize=12;fontStyle=0;container=1;pointerEvents=0;collapsible=0;recursiveResize=0;shape=mxgraph.aws4.group;grIcon=mxgraph.aws4.group_aws_cloud_alt;strokeColor=#666666;fillColor=#f5f5f5;verticalAlign=top;align=left;spacingLeft=30;fontColor=#333333;dashed=0;" parent="1" vertex="1">
          <mxGeometry x="680" y="-1660" width="250" height="520" as="geometry" />
        </mxCell>
        <mxCell id="6BNfL55N-zPbYAa_lblD-10" value="IAM Roles Anywhere" style="sketch=0;outlineConnect=0;fontColor=#232F3E;gradientColor=none;fillColor=#DD344C;strokeColor=none;dashed=0;verticalLabelPosition=bottom;verticalAlign=top;align=center;html=1;fontSize=12;fontStyle=0;aspect=fixed;pointerEvents=1;shape=mxgraph.aws4.identity_access_management_iam_roles_anywhere;" parent="6BNfL55N-zPbYAa_lblD-9" vertex="1">
          <mxGeometry x="90" y="50" width="60" height="60" as="geometry" />
        </mxCell>
        <mxCell id="6BNfL55N-zPbYAa_lblD-97" value="Amazon SNS" style="sketch=0;outlineConnect=0;fontColor=#232F3E;gradientColor=none;strokeColor=#ffffff;fillColor=#232F3E;dashed=0;verticalLabelPosition=middle;verticalAlign=bottom;align=center;html=1;whiteSpace=wrap;fontSize=10;fontStyle=1;spacing=3;shape=mxgraph.aws4.productIcon;prIcon=mxgraph.aws4.sns;" parent="6BNfL55N-zPbYAa_lblD-9" vertex="1">
          <mxGeometry x="30" y="290" width="50" height="90" as="geometry" />
        </mxCell>
        <mxCell id="6BNfL55N-zPbYAa_lblD-100" value="AWS Lambda" style="sketch=0;outlineConnect=0;fontColor=#232F3E;gradientColor=none;strokeColor=#ffffff;fillColor=#232F3E;dashed=0;verticalLabelPosition=middle;verticalAlign=bottom;align=center;html=1;whiteSpace=wrap;fontSize=10;fontStyle=1;spacing=3;shape=mxgraph.aws4.productIcon;prIcon=mxgraph.aws4.lambda;" parent="6BNfL55N-zPbYAa_lblD-9" vertex="1">
          <mxGeometry x="90" y="290" width="50" height="90" as="geometry" />
        </mxCell>
        <mxCell id="6BNfL55N-zPbYAa_lblD-101" value="&lt;b&gt;AWS Services&lt;/b&gt;" style="fillColor=none;strokeColor=#3399FF;dashed=1;verticalAlign=top;fontStyle=0;fontColor=#5A6C86;whiteSpace=wrap;html=1;dashPattern=8 8;rounded=1;glass=0;" parent="6BNfL55N-zPbYAa_lblD-9" vertex="1">
          <mxGeometry x="10" y="190" width="230" height="270" as="geometry" />
        </mxCell>
        <mxCell id="6BNfL55N-zPbYAa_lblD-109" value="..." style="text;strokeColor=none;fillColor=none;html=1;fontSize=24;fontStyle=1;verticalAlign=middle;align=center;" parent="6BNfL55N-zPbYAa_lblD-9" vertex="1">
          <mxGeometry x="120" y="310" width="100" height="40" as="geometry" />
        </mxCell>
        <mxCell id="6BNfL55N-zPbYAa_lblD-160" value="" style="endArrow=none;html=1;rounded=0;strokeColor=#cc00dc;strokeWidth=1.5;exitX=1.015;exitY=0.505;exitDx=0;exitDy=0;exitPerimeter=0;endFill=1;endSize=4;startSize=4;startFill=0;flowAnimation=1;shadow=1;" parent="1" source="6BNfL55N-zPbYAa_lblD-158" edge="1">
          <mxGeometry width="50" height="50" relative="1" as="geometry">
            <mxPoint x="585" y="-1602.05" as="sourcePoint" />
            <mxPoint x="770" y="-1603" as="targetPoint" />
          </mxGeometry>
        </mxCell>
        <mxCell id="6BNfL55N-zPbYAa_lblD-277" value="" style="endArrow=blockThin;html=1;rounded=0;strokeColor=#178b1b;strokeWidth=1.5;exitX=1.015;exitY=0.505;exitDx=0;exitDy=0;exitPerimeter=0;endFill=1;endSize=4;startSize=4;flowAnimation=1;shadow=1;" parent="1" source="6BNfL55N-zPbYAa_lblD-275" target="6BNfL55N-zPbYAa_lblD-101" edge="1">
          <mxGeometry width="50" height="50" relative="1" as="geometry">
            <mxPoint x="615" y="-1332.05" as="sourcePoint" />
            <mxPoint x="655" y="-1332.05" as="targetPoint" />
          </mxGeometry>
        </mxCell>
        <mxCell id="6BNfL55N-zPbYAa_lblD-281" value="" style="endArrow=none;html=1;rounded=0;strokeColor=#178b1b;strokeWidth=1.5;exitX=1;exitY=0.5;exitDx=0;exitDy=0;endFill=1;endSize=4;startSize=4;edgeStyle=orthogonalEdgeStyle;startFill=0;flowAnimation=1;shadow=1;" parent="1" source="6BNfL55N-zPbYAa_lblD-70" edge="1">
          <mxGeometry width="50" height="50" relative="1" as="geometry">
            <mxPoint x="670" y="-1312" as="sourcePoint" />
            <mxPoint x="560" y="-1330" as="targetPoint" />
          </mxGeometry>
        </mxCell>
        <mxCell id="PtYt7lvKfpzourR0MFkW-10" style="edgeStyle=orthogonalEdgeStyle;rounded=0;orthogonalLoop=1;jettySize=auto;html=1;exitX=0.625;exitY=1;exitDx=0;exitDy=0;exitPerimeter=0;" parent="1" source="6BNfL55N-zPbYAa_lblD-1" edge="1">
          <mxGeometry relative="1" as="geometry" />
        </mxCell>
      </root>
    </mxGraphModel>
  </diagram>
</mxfile>
